<?xml version="1.0" encoding="UTF-8"?>
<!DOCTYPE svg PUBLIC "-//W3C//DTD SVG 1.1//EN" "http://www.w3.org/Graphics/SVG/1.1/DTD/svg11.dtd">
<svg xmlns="http://www.w3.org/2000/svg" version="1.1" width="507px" height="297px" style="shape-rendering:geometricPrecision; text-rendering:geometricPrecision; image-rendering:optimizeQuality; fill-rule:evenodd; clip-rule:evenodd" xmlns:xlink="http://www.w3.org/1999/xlink">
<g><path style="opacity:1" fill="#fdfefd" d="M -0.5,-0.5 C 168.5,-0.5 337.5,-0.5 506.5,-0.5C 506.5,98.5 506.5,197.5 506.5,296.5C 337.5,296.5 168.5,296.5 -0.5,296.5C -0.5,197.5 -0.5,98.5 -0.5,-0.5 Z"/></g>
<g><path style="opacity:1" fill="#90bc41" d="M 137.5,59.5 C 138.933,57.086 139.433,54.4194 139,51.5C 137.864,53.743 137.03,56.0763 136.5,58.5C 130.108,75.0634 125.108,92.0634 121.5,109.5C 107.613,101.391 102.113,89.3907 105,73.5C 114.175,49.3132 128.509,28.6466 148,11.5C 158.241,32.2635 162.907,54.2635 162,77.5C 158.774,97.2268 147.274,108.227 127.5,110.5C 130.572,93.4745 133.905,76.4745 137.5,59.5 Z"/></g>
<g><path style="opacity:1" fill="#90bc42" d="M 97.5,84.5 C 87.3517,75.6972 76.3517,68.0305 64.5,61.5C 58.6617,57.5143 58.3284,57.8476 63.5,62.5C 73.9023,70.9091 84.569,78.9091 95.5,86.5C 95.8039,87.1499 96.1373,87.8165 96.5,88.5C 85.9794,96.2578 75.3127,96.4245 64.5,89C 53.5216,79.2443 45.3549,67.411 40,53.5C 38.479,49.1352 36.979,44.8019 35.5,40.5C 55.9382,41.1912 74.9382,46.6912 92.5,57C 101.837,64.8249 104.004,74.3249 99,85.5C 98.6174,84.944 98.1174,84.6107 97.5,84.5 Z"/></g>
<g><path style="opacity:1" fill="#dae9c0" d="M 137.5,59.5 C 137.5,58.8333 137.167,58.5 136.5,58.5C 137.03,56.0763 137.864,53.743 139,51.5C 139.433,54.4194 138.933,57.086 137.5,59.5 Z"/></g>
<g><path style="opacity:1" fill="#b5d480" d="M 64.5,61.5 C 63.8333,61.5 63.5,61.8333 63.5,62.5C 58.3284,57.8476 58.6617,57.5143 64.5,61.5 Z"/></g>
<g><path style="opacity:1" fill="#f1f7e8" d="M 63.5,62.5 C 63.5,61.8333 63.8333,61.5 64.5,61.5C 76.3517,68.0305 87.3517,75.6972 97.5,84.5C 96.1667,84.5 95.5,85.1667 95.5,86.5C 84.569,78.9091 73.9023,70.9091 63.5,62.5 Z"/></g>
<g><path style="opacity:1" fill="#91bc42" d="M 87.5,121.5 C 81.0341,123.377 74.7008,125.544 68.5,128C 75.0095,127.397 81.3429,126.23 87.5,124.5C 97.2213,123.158 106.888,121.491 116.5,119.5C 114.666,134.504 106.332,143.671 91.5,147C 76.8137,148.464 62.4803,146.797 48.5,142C 43.0721,140.247 37.7387,138.414 32.5,136.5C 32.33,135.178 32.6634,134.011 33.5,133C 47.7999,119.35 64.1333,109.017 82.5,102C 97.0828,98.2085 108.083,102.709 115.5,115.5C 105.964,116.644 96.6306,118.644 87.5,121.5 Z"/></g>
<g><path style="opacity:1" fill="#edf4e1" d="M 87.5,121.5 C 86.375,122.652 86.375,123.652 87.5,124.5C 81.3429,126.23 75.0095,127.397 68.5,128C 74.7008,125.544 81.0341,123.377 87.5,121.5 Z"/></g>
<g><path style="opacity:1" fill="#72aa8c" d="M 249.5,140.5 C 245.881,140.881 242.548,141.881 239.5,143.5C 238.596,142.791 238.263,141.791 238.5,140.5C 242.167,140.5 245.833,140.5 249.5,140.5 Z"/></g>
<g><path style="opacity:1" fill="#16713d" d="M 181.5,159.5 C 180.076,161.515 179.41,163.848 179.5,166.5C 177.054,174.974 176.22,183.641 177,192.5C 177.837,194.844 179.171,196.844 181,198.5C 185.012,209.128 181.512,213.961 170.5,213C 166.913,209.995 164.746,206.162 164,201.5C 163.667,196.167 163.333,190.833 163,185.5C 157.824,178.47 152.657,171.47 147.5,164.5C 147.44,163.957 147.107,163.624 146.5,163.5C 145.516,166.428 145.183,169.428 145.5,172.5C 144.866,188.983 141.033,204.65 134,219.5C 125.489,232.915 114.656,235.082 101.5,226C 90.0146,210.159 91.0146,195.159 104.5,181C 109.1,179.417 110.934,180.917 110,185.5C 107.344,187.996 104.344,189.996 101,191.5C 95.7492,202.406 96.7492,212.74 104,222.5C 111.92,228.416 118.92,227.416 125,219.5C 127.852,214.13 129.852,208.463 131,202.5C 134.147,185.633 135.48,168.633 135,151.5C 128.65,146.131 124.317,139.464 122,131.5C 121.064,117.778 127.231,112.945 140.5,117C 142.734,118.638 144.067,120.805 144.5,123.5C 144.41,126.152 145.076,128.485 146.5,130.5C 147.283,140.12 147.783,149.787 148,159.5C 153.667,166.5 159.333,173.5 165,180.5C 168.755,157.677 176.422,136.343 188,116.5C 195.859,106.247 205.692,103.747 217.5,109C 225.544,115.46 226.544,122.793 220.5,131C 216.311,133.257 211.977,133.757 207.5,132.5C 205.448,127.383 207.115,125.55 212.5,127C 214.414,130.133 216.581,130.3 219,127.5C 222.216,120.097 220.049,114.93 212.5,112C 204.762,110.704 198.928,113.538 195,120.5C 188.405,132.785 183.905,145.785 181.5,159.5 Z"/></g>
<g><path style="opacity:1" fill="#559671" d="M 144.5,123.5 C 145.924,125.515 146.59,127.848 146.5,130.5C 145.076,128.485 144.41,126.152 144.5,123.5 Z"/></g>
<g><path style="opacity:1" fill="#f0f6f2" d="M 128.5,121.5 C 131.292,121.452 133.125,122.785 134,125.5C 135.424,131.776 135.758,138.109 135,144.5C 131.19,140.696 128.19,136.363 126,131.5C 125.024,127.673 125.857,124.34 128.5,121.5 Z"/></g>
<g><path style="opacity:1" fill="#b8d5c4" d="M 181.5,159.5 C 181.59,162.152 180.924,164.485 179.5,166.5C 179.41,163.848 180.076,161.515 181.5,159.5 Z"/></g>
<g><path style="opacity:1" fill="#17723e" d="M 255.5,167.5 C 254.419,170.627 253.753,173.96 253.5,177.5C 251.671,186.414 251.171,195.414 252,204.5C 253.426,207.861 255.593,208.361 258.5,206C 261.719,202.448 264.552,198.615 267,194.5C 266.817,182.32 268.151,170.32 271,158.5C 276.473,153.886 280.639,154.886 283.5,161.5C 277.99,175.337 276.157,189.67 278,204.5C 279.029,207.875 281.196,209.042 284.5,208C 286.333,206.833 287.833,205.333 289,203.5C 296.052,189.339 300.052,174.339 301,158.5C 305.226,154.75 309.726,154.584 314.5,158C 315.081,158.893 315.415,159.893 315.5,161C 312.328,173.359 309.995,185.859 308.5,198.5C 307.185,203.999 309.185,206.499 314.5,206C 323.906,196.188 329.572,184.521 331.5,171C 328.606,168.625 325.772,166.125 323,163.5C 321.318,159.206 321.151,154.872 322.5,150.5C 328.651,144.824 334.151,145.491 339,152.5C 339.629,156.871 339.463,161.204 338.5,165.5C 341.874,165.326 345.207,164.826 348.5,164C 349.738,157.115 353.738,154.782 360.5,157C 363.207,158.864 364.041,161.364 363,164.5C 359.722,171.168 357.555,178.168 356.5,185.5C 354.479,191.768 354.146,198.101 355.5,204.5C 356.072,207.244 357.738,208.077 360.5,207C 364.187,203.79 367.021,199.956 369,195.5C 369.208,184.095 372.541,173.762 379,164.5C 394.37,150.871 407.37,152.871 418,170.5C 418.667,173.5 418.667,176.5 418,179.5C 414.381,188.378 413.214,197.545 414.5,207C 417.308,207.92 419.475,207.087 421,204.5C 422.667,201.5 424.333,198.5 426,195.5C 427.217,170.214 430.55,145.214 436,120.5C 436.465,119.069 437.299,117.903 438.5,117C 450.392,115.558 455.725,120.891 454.5,133C 453.32,148.56 448.82,163.06 441,176.5C 439.333,178.167 437.667,179.833 436,181.5C 434.628,189.125 434.294,196.792 435,204.5C 435.612,207.032 437.112,207.865 439.5,207C 446.164,201.204 450.997,194.038 454,185.5C 455.807,181.244 457.307,176.911 458.5,172.5C 459.5,172.5 460.5,172.5 461.5,172.5C 459.619,183.26 455.786,193.26 450,202.5C 445.316,209.594 438.816,212.427 430.5,211C 428.623,208.749 427.123,206.249 426,203.5C 423.463,206.372 420.63,208.872 417.5,211C 413.171,212.151 409.338,211.318 406,208.5C 403.941,205.051 402.441,201.384 401.5,197.5C 398.043,201.458 394.377,205.292 390.5,209C 381.416,214.04 374.75,211.873 370.5,202.5C 367.945,205.098 365.279,207.598 362.5,210C 352.858,214.024 347.358,210.857 346,200.5C 345.092,190.738 345.592,181.072 347.5,171.5C 348.404,170.791 348.737,169.791 348.5,168.5C 344.629,168.185 340.962,168.518 337.5,169.5C 334.378,182.019 329.211,193.686 322,204.5C 315.614,212.926 308.614,213.592 301,206.5C 300.023,204.26 299.523,201.927 299.5,199.5C 299.664,196.813 299.497,194.146 299,191.5C 298.209,192.745 297.709,194.078 297.5,195.5C 295.296,204.621 289.63,209.954 280.5,211.5C 274.539,210.433 270.372,207.1 268,201.5C 263.232,209.134 256.399,212.301 247.5,211C 245.628,208.707 244.128,206.207 243,203.5C 239.301,209.932 233.801,212.432 226.5,211C 222.198,207.576 219.531,203.076 218.5,197.5C 215.675,200.495 213.008,203.662 210.5,207C 199.234,214.97 191.401,212.47 187,199.5C 185.875,186.216 189.208,174.216 197,163.5C 205.493,156.043 214.993,154.543 225.5,159C 231.299,162.798 234.632,168.131 235.5,175C 232.507,185.283 231.007,195.783 231,206.5C 234.482,208.077 237.148,207.077 239,203.5C 240.333,200.833 241.667,198.167 243,195.5C 243.78,178.37 245.613,161.37 248.5,144.5C 245.391,144.736 242.391,144.403 239.5,143.5C 242.548,141.881 245.881,140.881 249.5,140.5C 250.432,133.366 251.932,126.366 254,119.5C 258.064,116.085 262.564,115.585 267.5,118C 268.059,118.725 268.392,119.558 268.5,120.5C 265.875,127.006 263.875,133.673 262.5,140.5C 274.694,140.783 286.86,140.45 299,139.5C 301.942,139.437 302.942,140.77 302,143.5C 288.246,144.49 274.412,144.823 260.5,144.5C 258.451,152.078 256.784,159.745 255.5,167.5 Z"/></g>
<g><path style="opacity:1" fill="#a5c9b4" d="M 337.5,169.5 C 340.962,168.518 344.629,168.185 348.5,168.5C 348.737,169.791 348.404,170.791 347.5,171.5C 344.663,169.598 341.329,168.931 337.5,169.5 Z"/></g>
<g><path style="opacity:1" fill="#f9fbfa" d="M 394.5,163.5 C 400.352,162.861 405.852,163.861 411,166.5C 411.483,167.448 411.649,168.448 411.5,169.5C 408.956,169.104 406.789,169.771 405,171.5C 402.228,180.378 398.895,189.045 395,197.5C 392.955,200.423 390.788,203.257 388.5,206C 384.596,208.534 381.762,207.701 380,203.5C 377.456,187.285 382.289,173.952 394.5,163.5 Z"/></g>
<g><path style="opacity:1" fill="#f8fbf9" d="M 211.5,163.5 C 215.514,163.334 219.514,163.501 223.5,164C 231.402,167.238 231.236,169.405 223,170.5C 219.3,180.241 215.3,189.907 211,199.5C 208.846,203.497 205.679,206.164 201.5,207.5C 198.638,207.135 197.138,205.469 197,202.5C 195.053,186.827 199.886,173.827 211.5,163.5 Z"/></g>
<g><path style="opacity:1" fill="#f1f7f3" d="M 328.5,154.5 C 330.167,154.5 331.833,154.5 333.5,154.5C 333.82,157.898 333.487,161.232 332.5,164.5C 329.083,162.074 327.75,158.741 328.5,154.5 Z"/></g>
<g><path style="opacity:1" fill="#eaf3ed" d="M 448.5,128.5 C 450.121,144.189 446.621,158.856 438,172.5C 439.605,157.412 443.105,142.746 448.5,128.5 Z"/></g>
<g><path style="opacity:1" fill="#8bb9a0" d="M 147.5,164.5 C 146.833,167.167 146.167,169.833 145.5,172.5C 145.183,169.428 145.516,166.428 146.5,163.5C 147.107,163.624 147.44,163.957 147.5,164.5 Z"/></g>
<g><path style="opacity:1" fill="#b5d2c2" d="M 255.5,167.5 C 255.664,170.187 255.497,172.854 255,175.5C 254.722,176.416 254.222,177.082 253.5,177.5C 253.753,173.96 254.419,170.627 255.5,167.5 Z"/></g>
<g><path style="opacity:1" fill="#8fbca4" d="M 299.5,199.5 C 298.833,198.167 298.167,196.833 297.5,195.5C 297.709,194.078 298.209,192.745 299,191.5C 299.497,194.146 299.664,196.813 299.5,199.5 Z"/></g>
<g><path style="opacity:1" fill="#bfd9c9" d="M 356.5,185.5 C 355.986,191.822 355.653,198.155 355.5,204.5C 354.146,198.101 354.479,191.768 356.5,185.5 Z"/></g>
<g><path style="opacity:1" fill="#afd1bd" d="M 177.5,200.5 C 176.527,202.948 176.194,205.615 176.5,208.5C 175.357,205.024 175.19,201.358 176,197.5C 177.039,198.244 177.539,199.244 177.5,200.5 Z"/></g>
<g><path style="opacity:1" fill="#e3efe8" d="M 177.5,200.5 C 179.175,203.507 179.841,206.84 179.5,210.5C 177.821,210.715 176.821,210.048 176.5,208.5C 176.194,205.615 176.527,202.948 177.5,200.5 Z"/></g>
<g><path style="opacity:1" fill="#cce1a8" d="M 279.5,235.5 C 271.648,235.175 263.982,235.508 256.5,236.5C 255.957,236.44 255.624,236.107 255.5,235.5C 263.657,234.18 271.657,234.18 279.5,235.5 Z"/></g>
<g><path style="opacity:1" fill="#94be47" d="M 256.5,236.5 C 263.982,235.508 271.648,235.175 279.5,235.5C 281.5,236.833 283.167,238.5 284.5,240.5C 284.5,242.833 284.5,245.167 284.5,247.5C 286.099,247.768 287.432,247.434 288.5,246.5C 290.833,246.5 293.167,246.5 295.5,246.5C 295.443,250.133 296.443,250.3 298.5,247C 304.08,245.739 305.913,247.906 304,253.5C 299.953,255.469 297.953,254.136 298,249.5C 296.991,251.025 296.491,252.692 296.5,254.5C 295.517,258.298 295.183,262.298 295.5,266.5C 292.287,266.81 289.287,266.477 286.5,265.5C 287.489,260.025 287.822,254.358 287.5,248.5C 285.901,248.232 284.568,248.566 283.5,249.5C 282.025,251.41 280.025,252.576 277.5,253C 274.854,253.497 272.187,253.664 269.5,253.5C 269.5,257.5 269.5,261.5 269.5,265.5C 271.604,265.201 273.604,265.534 275.5,266.5C 268.833,267.833 262.167,267.833 255.5,266.5C 256.689,265.571 258.022,265.238 259.5,265.5C 259.5,255.833 259.5,246.167 259.5,236.5C 258.5,236.5 257.5,236.5 256.5,236.5 Z"/></g>
<g><path style="opacity:1" fill="#fafcf7" d="M 269.5,236.5 C 274.562,236.405 276.562,238.905 275.5,244C 276.562,249.095 274.562,251.595 269.5,251.5C 269.5,246.5 269.5,241.5 269.5,236.5 Z"/></g>
<g><path style="opacity:1" fill="#c1d995" d="M 417.5,242.5 C 417.56,241.957 417.893,241.624 418.5,241.5C 419.466,243.396 419.799,245.396 419.5,247.5C 420.791,247.263 421.791,247.596 422.5,248.5C 421.167,248.5 419.833,248.5 418.5,248.5C 418.795,246.265 418.461,244.265 417.5,242.5 Z"/></g>
<g><path style="opacity:1" fill="#c9dfa6" d="M 284.5,240.5 C 285.461,242.265 285.795,244.265 285.5,246.5C 286.5,246.5 287.5,246.5 288.5,246.5C 287.432,247.434 286.099,247.768 284.5,247.5C 284.5,245.167 284.5,242.833 284.5,240.5 Z"/></g>
<g><path style="opacity:1" fill="#bed790" d="M 395.5,246.5 C 397.966,245.366 400.633,245.199 403.5,246C 404.056,246.383 404.389,246.883 404.5,247.5C 403.833,248.5 403.167,249.5 402.5,250.5C 402.179,248.952 401.179,248.285 399.5,248.5C 400.263,247.732 401.263,247.232 402.5,247C 400.19,246.503 397.857,246.337 395.5,246.5 Z"/></g>
<g><path style="opacity:1" fill="#95bf4a" d="M 312.5,246.5 C 318.932,245.347 324.432,247.014 329,251.5C 332.554,259.643 330.054,265.143 321.5,268C 310.821,268.987 305.655,264.153 306,253.5C 307.694,250.642 309.861,248.309 312.5,246.5 Z"/></g>
<g><path style="opacity:1" fill="#91be44" d="M 404.5,247.5 C 407.139,248.706 407.972,250.706 407,253.5C 405.644,254.38 404.144,254.714 402.5,254.5C 402.5,253.167 402.5,251.833 402.5,250.5C 403.167,249.5 403.833,248.5 404.5,247.5 Z"/></g>
<g><path style="opacity:1" fill="#95bf4a" d="M 395.5,246.5 C 397.857,246.337 400.19,246.503 402.5,247C 401.263,247.232 400.263,247.732 399.5,248.5C 397.021,253.598 396.854,258.932 399,264.5C 402.065,265.411 404.898,265.411 407.5,264.5C 400.86,270.104 394.693,269.438 389,262.5C 386.729,255.174 388.895,249.841 395.5,246.5 Z"/></g>
<g><path style="opacity:1" fill="#f9fbf5" d="M 316.5,247.5 C 317.822,247.33 318.989,247.663 320,248.5C 320.667,253.833 320.667,259.167 320,264.5C 318.667,267.167 317.333,267.167 316,264.5C 315.26,258.782 315.427,253.115 316.5,247.5 Z"/></g>
<g><path style="opacity:1" fill="#92bd44" d="M 351.5,233.5 C 352.833,233.5 354.167,233.5 355.5,233.5C 355.832,244.187 355.499,254.854 354.5,265.5C 349.076,268.047 343.41,268.88 337.5,268C 330.851,260.914 330.851,253.914 337.5,247C 340.23,246.272 342.897,246.438 345.5,247.5C 347.002,243.29 346.669,239.29 344.5,235.5C 346.969,234.832 349.302,234.165 351.5,233.5 Z"/></g>
<g><path style="opacity:1" fill="#fafcf8" d="M 343.5,250.5 C 344.5,250.5 345.5,250.5 346.5,250.5C 346.5,255.833 346.5,261.167 346.5,266.5C 345.178,266.67 344.011,266.337 343,265.5C 342.222,260.416 342.389,255.416 343.5,250.5 Z"/></g>
<g><path style="opacity:1" fill="#93be46" d="M 374.5,263.5 C 375.487,258.695 375.821,253.695 375.5,248.5C 374.5,248.5 373.5,248.5 372.5,248.5C 372.611,247.883 372.944,247.383 373.5,247C 377.152,246.501 380.818,246.335 384.5,246.5C 384.334,252.509 384.501,258.509 385,264.5C 385.692,265.025 386.192,265.692 386.5,266.5C 382.454,267.957 378.621,267.623 375,265.5C 369.622,270.055 365.122,269.388 361.5,263.5C 362.037,257.865 361.37,252.532 359.5,247.5C 363.179,247.276 366.846,246.942 370.5,246.5C 370.334,252.176 370.501,257.843 371,263.5C 372.292,264.791 373.458,264.791 374.5,263.5 Z"/></g>
<g><path style="opacity:1" fill="#daeac0" d="M 372.5,248.5 C 373.5,248.5 374.5,248.5 375.5,248.5C 375.821,253.695 375.487,258.695 374.5,263.5C 375.026,258.193 374.36,253.193 372.5,248.5 Z"/></g>
<g><path style="opacity:1" fill="#a6c765" d="M 316.5,255.5 C 317.675,255.281 318.675,255.614 319.5,256.5C 317.948,257.798 316.948,257.465 316.5,255.5 Z"/></g>
<g><path style="opacity:1" fill="#deecc9" d="M 359.5,247.5 C 361.37,252.532 362.037,257.865 361.5,263.5C 361.062,258.46 360.062,253.46 358.5,248.5C 358.624,247.893 358.957,247.56 359.5,247.5 Z"/></g>
<g><path style="opacity:1" fill="#cee2ab" d="M 283.5,249.5 C 284.568,248.566 285.901,248.232 287.5,248.5C 287.822,254.358 287.489,260.025 286.5,265.5C 286.5,260.167 286.5,254.833 286.5,249.5C 285.5,249.5 284.5,249.5 283.5,249.5 Z"/></g>
<g><path style="opacity:1" fill="#93be46" d="M 437.5,266.5 C 436.508,266.672 435.842,266.338 435.5,265.5C 435.719,264.325 435.386,263.325 434.5,262.5C 425.049,260.081 423.049,254.915 428.5,247C 432.152,246.501 435.818,246.335 439.5,246.5C 439.808,248.924 439.474,251.257 438.5,253.5C 437.238,249.377 434.571,247.543 430.5,248C 429.167,249.333 429.167,250.667 430.5,252C 434.243,252.951 437.41,254.785 440,257.5C 440.667,259.833 440.667,262.167 440,264.5C 439.292,265.381 438.458,266.047 437.5,266.5 Z"/></g>
<g><path style="opacity:1" fill="#91bd42" d="M 417.5,242.5 C 418.461,244.265 418.795,246.265 418.5,248.5C 419.833,248.5 421.167,248.5 422.5,248.5C 421.432,249.434 420.099,249.768 418.5,249.5C 418.334,254.179 418.501,258.845 419,263.5C 420.787,264.343 422.62,264.51 424.5,264C 421.566,267.336 417.9,268.336 413.5,267C 412.333,266.5 411.5,265.667 411,264.5C 411.05,258.946 410.217,253.612 408.5,248.5C 412.036,247.237 415.036,245.237 417.5,242.5 Z"/></g>
<g><path style="opacity:1" fill="#b2d17a" d="M 296.5,254.5 C 296.003,258.759 296.669,262.759 298.5,266.5C 293.833,267.833 289.167,267.833 284.5,266.5C 284.957,265.702 285.624,265.369 286.5,265.5C 289.287,266.477 292.287,266.81 295.5,266.5C 295.183,262.298 295.517,258.298 296.5,254.5 Z"/></g>
<g><path style="opacity:1" fill="#a6c966" d="M 435.5,265.5 C 435.842,266.338 436.508,266.672 437.5,266.5C 430.803,270.461 426.469,268.628 424.5,261C 424.833,260.5 425.167,260 425.5,259.5C 426.717,265.427 430.05,267.427 435.5,265.5 Z"/></g>
</svg>
